<svg xmlns="http://www.w3.org/2000/svg" viewBox="0 0 68 68"><defs><style>.cls-1{fill:#75c940;}.cls-2{fill:#8ad15c;isolation:isolate;}.cls-3{fill:#fff;}</style></defs><title>excel</title><g id="图层_2" data-name="图层 2"><g id="图层_1-2" data-name="图层 1"><rect class="cls-1" width="68" height="68"/><path class="cls-2" d="M21.53,41l.27-.41,3.72-5.54,1-1.53,12-17.93H25L17,28.15l-1,1.67-1.73,2.72-.68,1.07-1.28-2.09L2.48,15.59H0V33.17l6.28,9.28L0,51.88V68H3.09l10-15.51L22.86,68H37.5l-17-25.47Z"/><path class="cls-3" d="M21.63,27.57v1.68H14.35V33H21.2v1.68H14.35v4.08h7.58v1.68H12.39V27.57Z"/><path class="cls-3" d="M25.41,31.12l2.05,2.95,2-2.95h2.23L28.5,35.48l3.62,5H29.89l-2.43-3.55L25,40.43H22.76l3.64-5-3.23-4.36Z"/><path class="cls-3" d="M40.29,31.68a4,4,0,0,1,1.37,2.59H39.77A2.23,2.23,0,0,0,39,32.88a2.51,2.51,0,0,0-1.57-.45,2.17,2.17,0,0,0-1.85.89,3.79,3.79,0,0,0-.69,2.44,4,4,0,0,0,.67,2.47,2.1,2.1,0,0,0,1.85.88,2.18,2.18,0,0,0,2.39-2,.86.86,0,0,0,0-.16H41.7a4.55,4.55,0,0,1-1.43,2.79,4.4,4.4,0,0,1-2.88.9,4.1,4.1,0,0,1-3.31-1.4,5.17,5.17,0,0,1-1.15-3.5,5.2,5.2,0,0,1,1.13-3.45,4.11,4.11,0,0,1,3.37-1.46A4.67,4.67,0,0,1,40.29,31.68Z"/><path class="cls-3" d="M50.75,32.42a6.32,6.32,0,0,1,1.12,3.88H44.81a3.46,3.46,0,0,0,.74,2.09,2.3,2.3,0,0,0,1.78.72A2.68,2.68,0,0,0,49,38.65a3.41,3.41,0,0,0,.85-1.21h1.91a4.33,4.33,0,0,1-1.28,2.18,4.55,4.55,0,0,1-3.08,1.06,4.24,4.24,0,0,1-3.26-1.28,5,5,0,0,1-1.3-3.64A5,5,0,0,1,44,32.29a4,4,0,0,1,3.26-1.42A4.06,4.06,0,0,1,50.75,32.42Zm-5.13.64a3.16,3.16,0,0,0-.78,1.8h5a2.37,2.37,0,0,0-2.28-2.44H47.3A2.28,2.28,0,0,0,45.62,33.06Z"/><path class="cls-3" d="M55.61,27.32V40.43H53.7V27.32Z"/></g></g></svg>