<svg xmlns="http://www.w3.org/2000/svg" viewBox="0 0 68 68"><defs><style>.cls-1{fill:#25ded7;}.cls-2{fill:#66e8e3;fill-rule:evenodd;isolation:isolate;}.cls-3{fill:#fff;}</style></defs><title>music</title><g id="图层_2" data-name="图层 2"><g id="图层_1-2" data-name="图层 1"><rect class="cls-1" width="68" height="68"/><path class="cls-2" d="M43.51,48.14a1.32,1.32,0,0,1-.06.39,8.39,8.39,0,0,1,.06,1,8.07,8.07,0,1,1-4-7V22.89l-28.3,5V56.21a1.74,1.74,0,0,1-.05.39c0,.31.05.63.05,1a8.1,8.1,0,0,1-8.15,8A8.25,8.25,0,0,1,0,65V50.1a8.18,8.18,0,0,1,3.09-.61,7.92,7.92,0,0,1,4,1.08V15.74A1.34,1.34,0,0,1,8.43,14.4H9.58l.28-.08L40.31,9.23a1.48,1.48,0,0,1,.51-.09h.07L41.6,9a1.08,1.08,0,0,1,.8.14,1.34,1.34,0,0,1,1.11,1.32Z"/><g id="Music"><path class="cls-3" d="M11.81,27.54l4.49,10.3h.05l4.47-10.3h2.32V40.39h-2V31.21h-.07l-3.95,9.18H15.47l-3.94-9.18h-.07v9.18h-2V27.54Z"/><path class="cls-3" d="M27.38,31.08v5.68a2.47,2.47,0,0,0,.51,1.72,2.06,2.06,0,0,0,1.6.56,2,2,0,0,0,1.39-.61,3.23,3.23,0,0,0,.9-1.66V31.08h1.91v9.31H31.78V39.13a3.61,3.61,0,0,1-2.94,1.51c-2.25,0-3.36-1.26-3.36-3.76v-5.8Z"/><path class="cls-3" d="M43.3,33.77H41.44a1.74,1.74,0,0,0-.66-1.05,2.82,2.82,0,0,0-1.48-.32,2.53,2.53,0,0,0-1.3.25.88.88,0,0,0-.5.83c0,.32.25.59.76.83a13.38,13.38,0,0,0,1.87.55,7.93,7.93,0,0,1,2.36.89,2.17,2.17,0,0,1,1.11,1.94q0,3-4.14,3c-2.55,0-3.92-1.09-4.14-3.25h1.87a2.08,2.08,0,0,0,.67,1.33,2.72,2.72,0,0,0,1.55.36c1.48,0,2.23-.43,2.23-1.26a1.19,1.19,0,0,0-.83-1.06,9.34,9.34,0,0,0-1.87-.55,7.26,7.26,0,0,1-2.3-.81,2.11,2.11,0,0,1-1.08-1.87,2.27,2.27,0,0,1,1-2,4.65,4.65,0,0,1,2.74-.72Q43,30.82,43.3,33.77Z"/><path class="cls-3" d="M47.53,27.72a1.21,1.21,0,0,1,.37.91,1.29,1.29,0,0,1-.39.94,1.3,1.3,0,0,1-.94.36,1.27,1.27,0,0,1-1.31-1.23v-.07a1.17,1.17,0,0,1,.38-.91,1.19,1.19,0,0,1,.93-.36A1.27,1.27,0,0,1,47.53,27.72Zm0,3.36v9.31H45.62V31.08Z"/><path class="cls-3" d="M57.1,31.64a4,4,0,0,1,1.37,2.59H56.58a2.14,2.14,0,0,0-.77-1.38,2.51,2.51,0,0,0-1.57-.45,2.2,2.2,0,0,0-1.85.88,3.82,3.82,0,0,0-.69,2.45,4,4,0,0,0,.67,2.47,2.14,2.14,0,0,0,1.85.88,2.17,2.17,0,0,0,2.39-1.93s0-.1,0-.15h1.89a4.54,4.54,0,0,1-1.42,2.79,4.38,4.38,0,0,1-2.88.9,4.09,4.09,0,0,1-3.32-1.4,5.13,5.13,0,0,1-1.15-3.49,5.22,5.22,0,0,1,1.13-3.46,4.18,4.18,0,0,1,3.37-1.46A4.6,4.6,0,0,1,57.1,31.64Z"/></g></g></g></svg>