<svg xmlns="http://www.w3.org/2000/svg" viewBox="0 0 68 68"><defs><style>.cls-1{fill:#a3acbf;}.cls-2{fill:#b1b8c9;isolation:isolate;}.cls-3{fill:#fff;}</style></defs><title>未知文件</title><g id="图层_2" data-name="图层 2"><g id="图层_1-2" data-name="图层 1"><g id="矩形"><rect class="cls-1" width="68" height="68"/></g><path class="cls-2" d="M27.4,24.56a13.9,13.9,0,0,0-3.27-4.94,18.46,18.46,0,0,0-6.05-3.83,24.69,24.69,0,0,0-9.36-1.54A20.35,20.35,0,0,0,.86,15.71L0,16.09V33.76H1.14a15.86,15.86,0,0,1,.47-4,9.68,9.68,0,0,1,1.46-3.24,7.34,7.34,0,0,1,2.53-2.2,7.68,7.68,0,0,1,3.67-.83,6.76,6.76,0,0,1,4.94,1.74A7.27,7.27,0,0,1,16,30.6a6.57,6.57,0,0,1-.75,3.56,10.67,10.67,0,0,1-2.17,2.61c-.9.79-1.87,1.58-2.93,2.37a20.4,20.4,0,0,0-3,2.8,15.37,15.37,0,0,0-3.79,9.6v3.55H14v-3a8.17,8.17,0,0,1,1.54-4,15.52,15.52,0,0,1,2.81-2.8c1-.82,2.17-1.63,3.36-2.45a16.48,16.48,0,0,0,3.24-3,15.43,15.43,0,0,0,2.44-4.19,16.81,16.81,0,0,0,1-6.24A14.18,14.18,0,0,0,27.4,24.56ZM2.24,59.83V68H14.65V59.83Z"/><path class="cls-3" d="M39,24.67A5.49,5.49,0,0,1,40.79,29a6,6,0,0,1-1.11,3.66A25.62,25.62,0,0,1,37.13,35a4.91,4.91,0,0,0-1.22,1.53,4.09,4.09,0,0,0-.49,2V39H32.21v-.5a6.36,6.36,0,0,1,.58-2.85,15.72,15.72,0,0,1,3.42-3.72l.5-.57a3.26,3.26,0,0,0-2.58-5.55,3.34,3.34,0,0,0-2.93,1.26,5.13,5.13,0,0,0-.82,3.09H27.21A6.86,6.86,0,0,1,29.12,25a7,7,0,0,1,5.2-1.92A6.71,6.71,0,0,1,39,24.67ZM35.39,41.23A2,2,0,0,1,36,42.76a2.07,2.07,0,0,1-.63,1.56,2.33,2.33,0,0,1-1.59.6,2,2,0,0,1-1.52-.63,2,2,0,0,1-.66-1.53,1.94,1.94,0,0,1,.66-1.53,2,2,0,0,1,1.52-.6A2.14,2.14,0,0,1,35.39,41.23Z"/></g></g></svg>