<svg xmlns="http://www.w3.org/2000/svg" viewBox="0 0 68 68"><defs><style>.cls-1{fill:#f8353f;}.cls-2{fill:#f9535c;isolation:isolate;}.cls-3{fill:#fff;}</style></defs><title>pdf</title><g id="图层_2" data-name="图层 2"><g id="图层_1-2" data-name="图层 1"><rect class="cls-1" width="68" height="68"/><path class="cls-2" d="M57,46.43a12.08,12.08,0,0,0-7.89-5.83,15.08,15.08,0,0,0-1.89-.39c-.24,0-.48-.07-.73-.09q-.93-.1-1.86-.12H44q-.77,0-1.68.06c-1.13.1-2.26.23-3.38.38a78.51,78.51,0,0,0-7.9,1.49c-.59-.57-1.17-1.15-1.73-1.74S28,38.78,27.42,38.07c-.81-.92-1.59-1.86-2.35-2.83-.43-.55-.82-1.09-1.23-1.63-.09-.13-.19-.25-.28-.37-.48-.65-.93-1.31-1.36-2s-.91-1.41-1.34-2.11l.39-1c.05-.14.1-.28.14-.41.23-.62.44-1.21.64-1.79.07-.2.14-.4.2-.59C24.38,19.13,25.39,14.5,25.39,11a13.13,13.13,0,0,0-.32-3c-.92-4-2.82-6.57-5-7.92L20,0H12.15c-2.75,1.87-5,5.92-5,13.08,0,4.8,1.69,10.46,4.63,16.23.08.17.16.33.25.5-.08.2-.17.41-.25.62-.62,1.53-1.3,3.18-2.06,4.93-2.38,5.55-5,11-7.59,15.93-.71.31-1.42.61-2.1.93H0V68H2c1.81-3,3.83-6.59,5.87-10.42a180.14,180.14,0,0,1,21-7c5.83,4.64,14.7,8.39,18.36,8.77,4.13.43,7.62-1,9.57-3.89A8.72,8.72,0,0,0,57,46.43ZM16.21,7.15a6.52,6.52,0,0,1,1.08,2.56c.3,1.33.17,3.9-1.26,8.82a20.57,20.57,0,0,1-.89-5.45C15.14,9.76,15.76,7.94,16.21,7.15ZM13.21,47h0c.65-1.33,1.27-2.67,1.87-4,.42-.91.83-1.83,1.23-2.73l.77-1.76c.06-.13.11-.26.16-.38a76.35,76.35,0,0,0,5,6.07C19.24,45.05,16.2,46,13.21,47ZM50.1,51v.08c-.14.2-.75.55-2.11.41a34.48,34.48,0,0,1-8-3.23A31.64,31.64,0,0,1,44,48c3.53,0,5.39,1.14,6,2.21A.89.89,0,0,1,50.1,51Z"/><path class="cls-3" d="M18.86,25.4C23,25.4,25,27.16,25,30.64s-2,5.25-6.15,5.25H14.37v6.7H11.75V25.4Zm-4.49,8.19h4.27a4.49,4.49,0,0,0,2.83-.72,2.81,2.81,0,0,0,.89-2.3,2.56,2.56,0,0,0-.91-2.21,4.44,4.44,0,0,0-2.81-.72H14.37Z"/><path class="cls-3" d="M33.64,25.4c2.76,0,4.85.77,6.29,2.33a8.78,8.78,0,0,1,2,6.24,8.87,8.87,0,0,1-2.06,6.26,8.22,8.22,0,0,1-6.29,2.36H27.4V25.4ZM30,40.33h3.09a6.51,6.51,0,0,0,4.78-1.56A6.66,6.66,0,0,0,39.34,34a6.72,6.72,0,0,0-1.47-4.8,6.48,6.48,0,0,0-4.75-1.54H30Z"/><path class="cls-3" d="M56.25,25.4v2.19h-9v5h8.52v2.24H47.22v7.76H44.61V25.4Z"/></g></g></svg>