<svg xmlns="http://www.w3.org/2000/svg" viewBox="0 0 68 68"><defs><style>.cls-1{fill:#f8353f;}.cls-2{fill:#f9535c;isolation:isolate;}.cls-3{fill:#fff;}</style></defs><title>ppt</title><g id="图层_2" data-name="图层 2"><g id="图层_1-2" data-name="图层 1"><rect class="cls-1" width="68" height="68"/><path class="cls-2" d="M48.45,15a19.77,19.77,0,0,0-4.3-7.3A21.5,21.5,0,0,0,36.5,2.55,29.8,29.8,0,0,0,25.1.6H0V68H8.6V46.4H25.1a29.8,29.8,0,0,0,11.4-1.95,21.5,21.5,0,0,0,7.65-5.15,19.42,19.42,0,0,0,4.17-7,1.49,1.49,0,0,1,.13-.37,26,26,0,0,0,.86-3.37c.13-.62.22-1.24.3-1.86a26.63,26.63,0,0,0,.19-3.22A26.87,26.87,0,0,0,48.45,15ZM26,33.8a32.35,32.35,0,0,1-5.2.4H8.6V12.8H20.8a32.35,32.35,0,0,1,5.2.4,12.12,12.12,0,0,1,4.4,1.55A8.43,8.43,0,0,1,33.45,18a11.38,11.38,0,0,1,1.15,5.5,15.16,15.16,0,0,1-.32,3.22,9.45,9.45,0,0,1-.62,1.86c-.06.14-.14.28-.21.42a8.66,8.66,0,0,1-1.83,2.34,8.22,8.22,0,0,1-2.22,1.43,12.12,12.12,0,0,1-2.71.89Z"/><path class="cls-3" d="M21.58,26.86c3.4,0,5.1,1.44,5.1,4.34S25,35.58,21.54,35.58h-3.7v5.56H15.66V26.86Zm-3.74,6.86H21.4a3.72,3.72,0,0,0,2.36-.6,2.35,2.35,0,0,0,.74-1.92,2.18,2.18,0,0,0-.76-1.88,3.73,3.73,0,0,0-2.34-.6H17.84Z"/><path class="cls-3" d="M34.62,26.86c3.4,0,5.1,1.44,5.1,4.34S38,35.58,34.58,35.58h-3.7v5.56H28.7V26.86Zm-3.74,6.86h3.56a3.72,3.72,0,0,0,2.36-.6,2.35,2.35,0,0,0,.74-1.92,2.18,2.18,0,0,0-.76-1.88,3.73,3.73,0,0,0-2.34-.6H30.88Z"/><path class="cls-3" d="M52.34,26.86v1.86H47.58V41.14H45.42V28.72H40.64V26.86Z"/></g></g></svg>