<svg xmlns="http://www.w3.org/2000/svg" viewBox="0 0 68 68"><defs><style>.cls-1{fill:#ff9500;}.cls-2{fill:#ffa526;fill-rule:evenodd;isolation:isolate;}.cls-3{fill:#fff;}</style></defs><title>rar</title><g id="图层_2" data-name="图层 2"><g id="图层_1-2" data-name="图层 1"><rect class="cls-1" width="68" height="68"/><path id="合并形状" class="cls-2" d="M14,0V17H34V0ZM0,57V68H14V57ZM0,17V37H14V17ZM14,37V57H34V37Z"/><path class="cls-3" d="M18.57,24.4a6.6,6.6,0,0,1,4.13,1.17,4.55,4.55,0,0,1,1.58,3.72,4.14,4.14,0,0,1-.72,2.41,3.85,3.85,0,0,1-2.23,1.51h0a3.11,3.11,0,0,1,2.57,3L24.19,39a4.19,4.19,0,0,0,1,2.52H22.36a4.34,4.34,0,0,1-.74-2.26l-.22-2.14a3,3,0,0,0-.91-2.06,3.45,3.45,0,0,0-2.26-.63H13.6v7.09H11V24.4Zm-5,7.82H18.2a4,4,0,0,0,2.6-.74,2.61,2.61,0,0,0,.83-2.09,2.55,2.55,0,0,0-.81-2.09,4.24,4.24,0,0,0-2.64-.67H13.6Z"/><path class="cls-3" d="M35.49,24.4l6.6,17.14H39.28l-1.61-4.42H30.3l-1.6,4.42H25.91l6.6-17.14ZM36.88,35l-2.83-7.75h0L31.1,35Z"/><path class="cls-3" d="M51.35,24.4a6.6,6.6,0,0,1,4.13,1.17,4.5,4.5,0,0,1,1.59,3.72,4.14,4.14,0,0,1-.72,2.41,3.92,3.92,0,0,1-2.24,1.51h0a3.11,3.11,0,0,1,2.57,3L57,39a4.19,4.19,0,0,0,1,2.52H55.15a4.44,4.44,0,0,1-.75-2.26l-.21-2.14a3,3,0,0,0-.92-2.06A3.46,3.46,0,0,0,51,34.45H46.38v7.09H43.77V24.4Zm-5,7.82H51a4,4,0,0,0,2.59-.74,2.62,2.62,0,0,0,.84-2.09,2.56,2.56,0,0,0-.82-2.09A4.22,4.22,0,0,0,51,26.63H46.38Z"/></g></g></svg>