<svg xmlns="http://www.w3.org/2000/svg" viewBox="0 0 68 68"><defs><style>.cls-1{fill:#2196f3;}.cls-2,.cls-3{fill:#40a5f5;}.cls-2{isolation:isolate;}.cls-3{fill-rule:evenodd;}.cls-4{fill:#fff;}</style></defs><title>video</title><g id="图层_2" data-name="图层 2"><g id="图层_1-2" data-name="图层 1"><rect class="cls-1" width="68" height="68"/><path class="cls-2" d="M0,9v8H31V51H0v8H39V9Z"/><g id="三角形"><polygon class="cls-3" points="23 34.01 5 25 5 43.01 23 34.01"/></g><path class="cls-4" d="M12.38,27.57,16,38.23h.05l3.64-10.66h2.12L17.24,40.43H14.87L10.26,27.57Z"/><path class="cls-4" d="M25.32,27.75a1.15,1.15,0,0,1,.38.92,1.33,1.33,0,0,1-.39.94,1.41,1.41,0,0,1-.94.36,1.37,1.37,0,0,1-.94-.36,1.32,1.32,0,0,1-.38-.94,1.22,1.22,0,0,1,.38-.92A1.42,1.42,0,0,1,25.32,27.75Zm0,3.37v9.31h-1.9V31.12Z"/><path class="cls-4" d="M36.5,27.32V40.43H34.72V39.31a3.36,3.36,0,0,1-2.88,1.37,3.89,3.89,0,0,1-3.22-1.46,5.47,5.47,0,0,1-1.08-3.49,5.28,5.28,0,0,1,1.06-3.4,3.79,3.79,0,0,1,3.15-1.46,3.32,3.32,0,0,1,2.84,1.64V27.32Zm-6.41,6a4,4,0,0,0-.59,2.36,4.27,4.27,0,0,0,.56,2.39,2.3,2.3,0,0,0,2.07,1,2.23,2.23,0,0,0,1.92-1,3.94,3.94,0,0,0,.6-2.29v-.16a3.85,3.85,0,0,0-.72-2.43,2.18,2.18,0,0,0-1.75-.84,2.37,2.37,0,0,0-2.09,1Z"/><path class="cls-4" d="M46.08,32.42A6.32,6.32,0,0,1,47.2,36.3H40.14a3.43,3.43,0,0,0,.74,2.09,2.3,2.3,0,0,0,1.78.72,2.73,2.73,0,0,0,1.62-.46,3.38,3.38,0,0,0,.84-1.21H47a4.2,4.2,0,0,1-1.28,2.18,4.53,4.53,0,0,1-3.07,1.06,4.24,4.24,0,0,1-3.26-1.28,5,5,0,0,1-1.3-3.64,5.06,5.06,0,0,1,1.22-3.47,4,4,0,0,1,3.26-1.42A4.07,4.07,0,0,1,46.08,32.42ZM41,33.06a3.16,3.16,0,0,0-.78,1.8h5a2.37,2.37,0,0,0-2.28-2.44h-.26A2.28,2.28,0,0,0,41,33.06Z"/><path class="cls-4" d="M56.48,32.27a5.08,5.08,0,0,1,1.26,3.51,4.94,4.94,0,0,1-1.24,3.48,4.79,4.79,0,0,1-6.77,0l0,0a5,5,0,0,1-1.24-3.48,5,5,0,0,1,1.26-3.51A4.79,4.79,0,0,1,56.48,32.27ZM51,33.48a3.83,3.83,0,0,0-.62,2.3A3.8,3.8,0,0,0,51,38.07a2.39,2.39,0,0,0,2.06,1,2.45,2.45,0,0,0,2.07-1,4.36,4.36,0,0,0,0-4.59,2.42,2.42,0,0,0-2.07-1A2.39,2.39,0,0,0,51,33.48Z"/></g></g></svg>