<svg xmlns="http://www.w3.org/2000/svg" viewBox="0 0 68 68"><defs><style>.cls-1{fill:#4db5ff;}.cls-2{fill:#68c0fd;isolation:isolate;}.cls-3{fill:#fff;}</style></defs><title>word</title><g id="图层_2" data-name="图层 2"><g id="图层_1-2" data-name="图层 1"><rect class="cls-1" width="68" height="68"/><path class="cls-2" d="M46.18,10.6,36.93,49.46h-.16L27.14,10.6H15.52L5.73,49H5.57L0,25V67H11.73l9.4-38.39h.16L30.85,67H43.17L58.34,10.6Z"/><path class="cls-3" d="M14.16,27.57l2.51,10h.07l2.63-10h2.05l2.63,10h.07l2.5-10h2.22L25.13,40.43H23l-2.61-9.92h-.07l-2.61,9.92H15.64L12,27.57Z"/><path class="cls-3" d="M37.67,32.27a5.08,5.08,0,0,1,1.26,3.51,4.94,4.94,0,0,1-1.24,3.48,4.77,4.77,0,0,1-6.76,0l0,0a5,5,0,0,1-1.25-3.48,5,5,0,0,1,1.26-3.51,4.35,4.35,0,0,1,3.39-1.4A4.32,4.32,0,0,1,37.67,32.27Zm-5.43,1.21a3.83,3.83,0,0,0-.63,2.3,3.79,3.79,0,0,0,.63,2.29,2.37,2.37,0,0,0,2,1,2.45,2.45,0,0,0,2.07-1,4.36,4.36,0,0,0,0-4.59,2.42,2.42,0,0,0-2.07-1A2.35,2.35,0,0,0,32.24,33.48Z"/><path class="cls-3" d="M46.28,31.1V33a4.74,4.74,0,0,0-1.35-.2,2.14,2.14,0,0,0-1.55.7,2.72,2.72,0,0,0-.72,2v4.94H40.75V31.12h1.91v1.4a2.68,2.68,0,0,1,.9-1.13,2.24,2.24,0,0,1,1.51-.52A2.78,2.78,0,0,1,46.28,31.1Z"/><path class="cls-3" d="M56.05,27.32V40.43H54.27V39.31a3.36,3.36,0,0,1-2.88,1.37,3.91,3.91,0,0,1-3.23-1.46,5.47,5.47,0,0,1-1.08-3.49,5.27,5.27,0,0,1,1.07-3.4,3.75,3.75,0,0,1,3.15-1.46,3.32,3.32,0,0,1,2.84,1.64V27.32Zm-6.41,6a4,4,0,0,0-.59,2.36,4.35,4.35,0,0,0,.55,2.39,2.32,2.32,0,0,0,2.08,1,2.24,2.24,0,0,0,1.92-1,3.94,3.94,0,0,0,.6-2.29v-.16a4,4,0,0,0-.72-2.43,2.18,2.18,0,0,0-1.75-.84,2.35,2.35,0,0,0-2.09,1Z"/></g></g></svg>