<svg xmlns="http://www.w3.org/2000/svg" viewBox="0 0 68 68"><defs><style>.cls-1{fill:#ff9500;}.cls-2{fill:#ffa526;fill-rule:evenodd;isolation:isolate;}.cls-3{fill:#fff;}</style></defs><title>zip</title><g id="图层_2" data-name="图层 2"><g id="图层_1-2" data-name="图层 1"><rect class="cls-1" width="68" height="68"/><path id="合并形状" class="cls-2" d="M14,0V17H34V0ZM0,57V68H14V57ZM0,17V37H14V17ZM14,37V57H34V37Z"/><path class="cls-3" d="M29.67,25.43v2.09L19.61,40.34H30.24v2.23h-14V40.5l10-12.84H16.92V25.43Z"/><path class="cls-3" d="M35.16,25.43V42.57H32.57V25.43Z"/><path class="cls-3" d="M45.68,25.43c4.08,0,6.12,1.73,6.12,5.21s-2.07,5.26-6.17,5.26H41.19v6.67H38.57V25.43Zm-4.49,8.23h4.27a4.49,4.49,0,0,0,2.83-.72,2.84,2.84,0,0,0,.89-2.3,2.63,2.63,0,0,0-.91-2.26,4.5,4.5,0,0,0-2.81-.72H41.19Z"/></g></g></svg>